<svg width="512" height="512" viewBox="0 0 512 512" fill="none" xmlns="http://www.w3.org/2000/svg">
<path fill-rule="evenodd" clip-rule="evenodd" d="M270.209 49.5829C314.47 54.0719 360.253 39.0801 400.128 58.3739C444.197 79.6968 491.67 112.897 499.179 160.372C506.639 207.53 461.474 244.92 436.085 285.687C417.164 316.068 392.147 339.101 370.199 367.472C335.461 412.374 326.911 490.107 270.209 500.099C216.17 509.622 183.179 441.23 140.051 408.03C99.1707 376.561 36.1535 360.57 24.5648 311.004C12.9612 261.375 69.1645 222.761 85.4261 174.396C101.604 126.279 76.4433 58.6761 119.089 29.8708C161.937 0.928492 218.392 44.3276 270.209 49.5829Z" fill="url(#paint0_linear_6_3)"/>
<path fill-rule="evenodd" clip-rule="evenodd" d="M433.383 283.319C461.132 295.559 486.616 317.417 492.758 348.19C498.35 376.199 476.49 398.981 461.195 422.639C446.407 445.512 434.078 472.282 408.357 478.737C378.424 486.249 343.29 481.503 322.847 457.358C303.033 433.955 311.885 399.743 315.256 368.774C318.727 336.886 316.735 299.93 341.97 281.675C368.279 262.642 403.811 270.275 433.383 283.319Z" fill="url(#paint1_linear_6_3)"/>
<path fill-rule="evenodd" clip-rule="evenodd" d="M111.99 6.00082C142.471 6.21645 154.67 45.5839 170.553 71.5762C181.577 89.6167 187.194 108.957 187.813 130.084C188.458 152.091 188.192 175.208 174.085 192.121C158.891 210.337 135.72 221.351 111.99 220.991C88.5557 220.636 69.9408 205.032 51.7512 190.267C30.3932 172.93 -0.192466 157.577 0.000912462 130.084C0.194094 102.62 34.1823 91.1395 52.5919 70.7417C72.9904 48.1402 81.5295 5.78533 111.99 6.00082Z" fill="url(#paint2_linear_6_3)"/>
<path d="M339.267 266.802V288.198H172V266.802H339.267ZM339.267 218.281V239.677H172V218.281H339.267ZM302.558 304.035H332.789V313.47C332.789 336.045 325.757 353.118 311.694 364.686C297.741 376.255 279.248 382.039 256.215 382.039C233.403 382.039 215.187 376.255 201.567 364.686C187.946 353.118 181.136 337.674 181.136 318.355C181.136 311.055 181.966 304.484 183.627 298.644C185.399 292.803 187.946 287.468 191.268 282.639H231.631C223.991 287.581 218.786 292.803 216.018 298.307C213.249 303.698 211.865 309.876 211.865 316.839C211.865 329.643 215.741 339.64 223.492 346.828C231.244 354.016 242.262 357.61 256.547 357.61C271.053 357.61 282.349 353.848 290.432 346.322C298.516 338.797 302.558 327.285 302.558 311.785V304.035ZM258.706 154.934C244.2 154.934 233.403 158.753 226.316 166.391C219.229 174.028 215.685 184.361 215.685 197.39V202.107H185.787V195.874C185.787 174.758 192.32 158.528 205.387 147.184C218.454 135.728 236.172 130 258.54 130C280.355 130 297.519 135.504 310.033 146.511C322.546 157.405 328.802 172.4 328.802 191.494C328.802 198.12 328.027 204.185 326.477 209.689C325.037 215.08 322.989 219.854 320.331 224.009H279.469C287.11 219.966 292.149 215.361 294.585 210.194C297.021 205.028 298.239 199.3 298.239 193.01C298.239 181.104 294.972 171.782 288.439 165.043C281.906 158.304 271.995 154.934 258.706 154.934Z" fill="white"/>
<path fill-rule="evenodd" clip-rule="evenodd" d="M342.267 263.802V291.198H225.35C222.31 294.009 220.117 296.834 218.698 299.655L218.692 299.666L218.686 299.677C216.166 304.585 214.865 310.281 214.865 316.839C214.865 328.999 218.52 338.125 225.532 344.628C232.558 351.144 242.748 354.61 256.547 354.61C270.539 354.61 281.016 350.99 288.388 344.127C295.649 337.367 299.558 326.796 299.558 311.785V301.035H335.789V313.47C335.789 336.705 328.52 354.727 313.603 367C298.98 379.122 279.751 385.039 256.215 385.039C232.893 385.039 213.923 379.118 199.624 366.973C185.273 354.784 178.136 338.474 178.136 318.355C178.136 310.831 178.991 303.978 180.742 297.823L180.749 297.798L180.756 297.773C181.442 295.512 182.24 293.32 183.15 291.198H169V263.802H342.267ZM187.904 288.198C187.385 289.18 186.893 290.18 186.43 291.198C185.344 293.582 184.41 296.063 183.627 298.644C181.966 304.484 181.136 311.055 181.136 318.355C181.136 337.674 187.946 353.118 201.567 364.686C215.187 376.255 233.403 382.039 256.215 382.039C279.248 382.039 297.741 376.255 311.694 364.686C325.757 353.118 332.789 336.045 332.789 313.47V304.035H302.558V311.785C302.558 327.285 298.516 338.797 290.432 346.322C282.349 353.848 271.053 357.61 256.547 357.61C242.262 357.61 231.244 354.016 223.492 346.828C215.741 339.64 211.865 329.643 211.865 316.839C211.865 309.876 213.249 303.698 216.018 298.307C217.237 295.883 218.929 293.513 221.093 291.198C222.038 290.188 223.073 289.188 224.197 288.198H339.267V266.802H172V288.198H187.904ZM342.267 215.281V242.677H169V215.281H286.985C289.246 213.208 290.851 211.079 291.871 208.915C294.101 204.187 295.239 198.902 295.239 193.01C295.239 181.665 292.141 173.171 286.285 167.131C280.518 161.182 271.526 157.934 258.706 157.934C244.698 157.934 234.84 161.615 228.515 168.431C222.063 175.384 218.685 184.92 218.685 197.39V205.107H182.787V195.874C182.787 174.101 189.553 156.961 203.415 144.924C217.17 132.866 235.661 127 258.54 127C280.851 127 298.797 132.635 312.008 144.253C325.274 155.806 331.802 171.68 331.802 191.494C331.802 198.345 331.002 204.682 329.37 210.483C328.929 212.133 328.432 213.732 327.879 215.281H342.267ZM324.682 215.281C324.292 216.308 323.875 217.308 323.433 218.281H339.267V239.677H172V218.281H288.12C289.262 217.307 290.284 216.307 291.187 215.281C292.622 213.651 293.755 211.955 294.585 210.194C297.021 205.028 298.239 199.3 298.239 193.01C298.239 181.104 294.972 171.782 288.439 165.043C281.906 158.304 271.995 154.934 258.706 154.934C244.2 154.934 233.403 158.753 226.316 166.391C219.229 174.028 215.685 184.361 215.685 197.39V202.107H185.787V195.874C185.787 174.758 192.32 158.528 205.387 147.184C218.454 135.728 236.172 130 258.54 130C280.355 130 297.519 135.504 310.033 146.511C322.546 157.405 328.802 172.4 328.802 191.494C328.802 198.12 328.027 204.185 326.477 209.689C325.958 211.633 325.359 213.497 324.682 215.281Z" fill="url(#paint3_linear_6_3)"/>
<defs>
<linearGradient id="paint0_linear_6_3" x1="261.5" y1="20" x2="261.5" y2="501" gradientUnits="userSpaceOnUse">
<stop stop-color="#035D69"/>
<stop offset="1" stop-color="#008B9E" stop-opacity="0.39"/>
</linearGradient>
<linearGradient id="paint1_linear_6_3" x1="428.258" y1="281.103" x2="352.306" y2="477.232" gradientUnits="userSpaceOnUse">
<stop stop-color="#4908D2"/>
<stop offset="1" stop-color="#4908D2" stop-opacity="0"/>
</linearGradient>
<linearGradient id="paint2_linear_6_3" x1="94" y1="6" x2="94" y2="221" gradientUnits="userSpaceOnUse">
<stop stop-color="#8B1471"/>
<stop offset="1" stop-color="#8B1471" stop-opacity="0"/>
</linearGradient>
<linearGradient id="paint3_linear_6_3" x1="255.049" y1="382.039" x2="267.065" y2="130.015" gradientUnits="userSpaceOnUse">
<stop stop-color="#035C78" stop-opacity="0.15"/>
<stop offset="1" stop-color="#035C78" stop-opacity="0.81"/>
</linearGradient>
</defs>
</svg>
